<svg width="330" height="330" viewBox="0 0 1000 1000" xmlns="http://www.w3.org/2000/svg">
	<defs>
		<linearGradient id="linearGradientId" gradientTransform="rotate(-45 0.5 0.5)">
			<stop offset="0%" stop-color="#F2B2F0" />
			<stop offset="100%" stop-color="#F57CF1" />
		</linearGradient>
		<clipPath id="shape">
			<path fill="currentColor" d="M760,622.5Q838,745,744,853Q650,961,543.5,826.5Q437,692,274,737.5Q111,783,184,641.5Q257,500,218,383.5Q179,267,265,153.5Q351,40,455,179Q559,318,658.5,315.5Q758,313,720,406.5Q682,500,760,622.5Z">
			</path>
		</clipPath>
	</defs>
	<g clip-path="url(#shape)">
		<path fill="url(#linearGradientId)" d="M760,622.5Q838,745,744,853Q650,961,543.5,826.5Q437,692,274,737.5Q111,783,184,641.5Q257,500,218,383.5Q179,267,265,153.5Q351,40,455,179Q559,318,658.5,315.5Q758,313,720,406.5Q682,500,760,622.5Z" />
	</g>
</svg>
