<?xml version="1.0" standalone="no"?>
<!DOCTYPE svg PUBLIC "-//W3C//DTD SVG 20010904//EN"
 "http://www.w3.org/TR/2001/REC-SVG-20010904/DTD/svg10.dtd">
<svg version="1.0" xmlns="http://www.w3.org/2000/svg"
 width="1280.000000pt" height="455.000000pt" viewBox="0 0 1280.000000 455.000000"
 preserveAspectRatio="xMidYMid meet">

<g transform="translate(0.000000,455.000000) scale(0.100000,-0.100000)"
fill="#000000" stroke="none">
<path d="M2055 4428 c-635 -64 -1220 -421 -1578 -963 -67 -101 -182 -332 -222
-445 -137 -386 -162 -859 -65 -1235 68 -260 156 -463 293 -670 297 -449 744
-767 1263 -900 182 -47 332 -65 537 -65 358 1 646 69 969 231 418 209 751 548
959 974 570 1169 -23 2567 -1261 2976 -289 95 -591 128 -895 97z m1012 -1775
c-4 -873 -2 -847 -78 -1002 -78 -158 -231 -272 -412 -306 -100 -19 -292 -19
-382 0 -143 30 -268 112 -343 225 -64 96 -119 292 -110 397 l3 38 170 22 c247
31 220 39 234 -64 14 -102 39 -165 83 -210 88 -91 296 -78 357 21 48 78 51
119 51 914 l0 742 216 0 215 0 -4 -777z"/>
<path d="M5080 3090 c-187 -23 -299 -91 -364 -222 -33 -64 -36 -79 -36 -153 0
-46 6 -100 15 -126 34 -98 137 -196 254 -240 31 -11 133 -41 226 -66 191 -51
230 -68 270 -115 24 -28 27 -38 23 -88 -5 -64 -24 -96 -83 -134 -57 -38 -108
-49 -205 -44 -70 3 -94 9 -138 33 -65 35 -108 91 -130 169 l-16 58 -75 -6
c-195 -17 -191 -16 -191 -47 0 -45 45 -175 79 -228 101 -157 280 -230 536
-218 192 8 329 62 409 161 72 88 102 185 93 305 -7 109 -38 181 -103 247 -81
81 -157 114 -414 180 -256 65 -332 130 -271 230 47 77 237 106 357 54 49 -21
87 -68 105 -129 l13 -44 125 7 c70 3 132 6 139 6 28 0 1 129 -45 207 -51 87
-152 157 -269 186 -75 19 -220 27 -304 17z"/>
<path d="M5993 2583 c5 -534 11 -598 63 -693 33 -60 115 -139 176 -169 86 -41
165 -55 318 -55 158 0 229 13 323 61 63 32 136 105 166 165 45 94 52 170 58
691 l6 487 -141 0 -140 0 -5 -492 c-3 -359 -7 -504 -17 -533 -18 -59 -75 -110
-145 -130 -81 -24 -183 -17 -250 17 -58 30 -74 46 -106 108 l-24 45 -3 493 -3
492 -140 0 -140 0 4 -487z"/>
<path d="M7390 2381 l0 -691 140 0 140 0 2 288 3 287 80 -2 c159 -5 181 -25
402 -354 l147 -219 164 0 c90 0 162 4 160 9 -12 31 -252 403 -290 449 -26 32
-74 77 -107 101 -34 25 -59 46 -57 48 1 2 28 10 60 18 185 48 287 175 289 360
2 185 -87 319 -246 372 -45 15 -110 17 -469 21 l-418 3 0 -690z m761 436 c111
-58 118 -232 12 -299 -37 -22 -47 -23 -265 -26 l-228 -3 0 175 0 176 218 0
c209 0 221 -1 263 -23z"/>
<path d="M8672 2928 c27 -79 73 -206 100 -283 27 -77 65 -183 83 -235 19 -52
61 -171 95 -265 34 -93 79 -219 100 -280 21 -60 44 -125 50 -142 l12 -33 153
0 c151 0 154 0 161 23 3 12 35 103 70 202 35 99 80 225 100 280 19 55 48 136
64 180 88 244 240 677 240 685 0 16 -290 13 -295 -2 -117 -368 -330 -997 -335
-991 -5 4 -49 127 -99 273 -49 146 -125 369 -169 495 l-78 230 -152 3 -151 3
51 -143z"/>
<path d="M10050 2380 l0 -690 530 0 530 0 0 115 0 115 -390 0 -390 0 2 188 3
187 348 3 347 2 0 115 0 115 -347 2 -348 3 0 150 0 150 373 3 372 2 0 115 0
115 -515 0 -515 0 0 -690z"/>
<path d="M11216 3058 c8 -13 215 -343 393 -623 l101 -160 0 -292 0 -293 140 0
140 0 0 286 c0 277 1 288 22 323 28 47 152 243 328 520 78 123 144 230 147
237 4 12 -23 14 -153 14 l-159 0 -117 -203 c-64 -111 -133 -232 -155 -269 -21
-37 -40 -67 -43 -68 -3 0 -36 53 -74 118 -38 64 -109 186 -159 270 l-89 152
-165 0 c-128 0 -163 -3 -157 -12z"/>
</g>
</svg>
